<svg xmlns="http://www.w3.org/2000/svg" width="470" height="465" fill="none" viewBox="0 0 470 465"><style>@keyframes playPulse{0%,to{transform:scale(1);opacity:1}50%{transform:scale(1.05);opacity:.8}}@keyframes gradientShift{0%,to{stop-color:#011d2d}50%{stop-color:#024a6b}}@keyframes gradientShiftEnd{0%,to{stop-opacity:.15}50%{stop-opacity:.35}}@keyframes dashAnimation{0%{stroke-dashoffset:2000}to{stroke-dashoffset:0}}@keyframes glow{0%,to{filter:drop-shadow(0 0 2px rgba(1,29,45,.5))}50%{filter:drop-shadow(0 0 8px rgba(1,29,45,.6)) drop-shadow(0 0 12px rgba(255,255,255,.7))}}</style><defs><linearGradient id="paint0_linear_4453_87" x1="425" x2="81.5" y1="233" y2="32" gradientUnits="userSpaceOnUse"><stop stop-color="#011d2d" style="animation:gradientShift 2.5s ease-in-out infinite"/><stop offset="1" stop-color="#fff" stop-opacity=".15" style="animation:gradientShiftEnd 2.5s ease-in-out infinite"/></linearGradient><linearGradient id="paint1_linear_4453_87" x1="61" x2="387.866" y1="231.494" y2="231.494" gradientUnits="userSpaceOnUse"><stop offset=".313" stop-color="#00a3ee"/><stop offset=".591" stop-color="#00a3ff"/><stop offset="1" stop-color="#003780"/></linearGradient><linearGradient id="paint2_linear_4453_87" x1="61" x2="387.866" y1="231.494" y2="231.494" gradientUnits="userSpaceOnUse"><stop offset=".313" stop-color="#00a3ee"/><stop offset=".591" stop-color="#00a3ff"/><stop offset="1" stop-color="#003780"/></linearGradient><linearGradient id="paint3_linear_4453_87" x1="67.005" x2="370.312" y1="240.051" y2="240.051" gradientUnits="userSpaceOnUse"><stop offset=".313" stop-color="#00a3ee"/><stop offset=".591" stop-color="#00a3ff"/><stop offset="1" stop-color="#003780"/></linearGradient></defs><g style="animation:playPulse 2.5s ease-in-out infinite;transform-origin:center"><path stroke="url(#paint0_linear_4453_87)" stroke-width="9" d="M105.907 34.47c-12.6 4.462-22.678 12.852-32.217 26.776-19.258 28.026-30.417 76.401-36.356 155.123-2.7 35.702-1.08 110.675 2.88 135.666 6.659 42.842 19.797 66.227 43.915 77.473 8.999 4.106 12.059 4.641 29.877 4.463 14.038 0 23.757-1.25 33.296-3.749 54.535-14.816 154.245-64.62 217.958-108.533 25.918-18.029 56.335-47.662 63.534-61.942 9.719-19.458 8.099-37.665-5.4-57.837C389.918 151.035 251.512 62.317 167.46 37.683c-20.338-6.07-49.675-7.498-61.553-3.214Zm44.455 7.675C200.577 52.5 283.009 94.984 356.081 148.358c25.018 18.208 57.234 50.875 64.434 65.155 7.919 15.709 7.919 27.49.18 43.021-16.739 33.024-86.931 81.935-187.541 130.311-86.392 41.592-128.507 49.446-155.505 29.275-24.657-18.565-35.636-68.904-33.656-156.016 1.62-67.476 7.74-117.459 19.078-154.41C75.13 66.066 91.868 45.18 115.086 40.717c12.238-2.32 17.458-2.142 35.276 1.428Z" style="stroke-dasharray:2000;stroke-dashoffset:2000;animation:dashAnimation 2s ease-out forwards,glow 2.5s ease-in-out infinite 2s"/></g><path fill="#00a3ee" d="M108.413 283.202c-4.294.248-7.526-.175-11.187-2.873-3.76-3.414-5.83-6.834-6.282-11.898-.02-1.896.043-3.768.133-5.655l.082-2.224c.48-11.807 1.265-23.584 2.051-35.355a2432 2432 0 0 0 .299-4.591c1.773-27.29 3.635-49.31 7.907-54.014 3.135-2.433 6.279-3.795 10.487-3.437 4.544.863 8.041 2.44 11.138 6.021 2.76 5.119 3.266 9.38 2.555 14.844l-.216 2.054c-.152 1.434-2.173 24.887-2.339 26.319a548 548 0 0 0-1.072 10.42l-.209 2.168c-1.093 11.763-1.58 23.624-2.067 35.465v.002l-.054 1.313-.113 2.522q-.102 2.31-.181 4.622c-.351 7.781-3.295 12.056-10.932 14.297"/><path fill="url(#paint1_linear_4480_85)" fill-rule="evenodd" d="M76.19 229.246c-3.512-1.774-7.396-2.208-10.605.341-3.383 3.232-3.383 3.232-3.989 16.328l-.064 1.416c-1.027 22.022-.595 43.985 1.536 65.942l.14 1.435q.196 2.047.406 4.093l.13 1.254c.25 2.523.585 4.861 1.61 7.23 1.802 2.444 3.356 3.681 6.436 4.494 3.191.125 5.637-.463 8.046-2.497 2.654-3.471 2.329-6.988 1.806-11.045-3.109-23.241-3.14-46.624-2.256-69.988l.129-3.381.01-.292c.05-1.301.097-2.603.152-3.903l.042-.99.07-1.843c.142-3.223-.622-6.522-3.599-8.594m243.71 69.085c-.428-2.776-1.6-4.543-3.481-6.413-2.904-1.601-6.15-2.145-9.037-.234l-1.056.825-1.178.909a158 158 0 0 1-2.284 1.736l-1.08.794a871 871 0 0 1-16.734 11.963 439 439 0 0 0-3.852 2.714c-5.194 3.743-10.525 7.158-15.921 10.523a577 577 0 0 0-6.12 3.867c-4.629 2.968-9.27 5.869-14.012 8.605l-.572.321c-3.368 1.892-6.875 3.862-9.061 7.396-.768 2.697-.808 5.096 0 7.821 1.384 2.248 2.732 3.773 4.924 4.983 2.472.576 4.578.43 6.888-.756l1.531-.976 1.698-1.066q1.609-1.022 3.235-2.007c19.651-11.742 39.002-24.304 57.53-38.181l1.008-.757c1.873-1.388 3.722-2.769 5.416-4.429 1.798-2.257 2.293-4.665 2.158-7.638m-92.243 59.095c-.754-2.233-1.721-3.734-3.695-5.079-2.734-1.341-5.307-1.458-8.041-.17l-.985.521-1.149.602c-17.004 8.956-34.24 17.333-52.284 23.991l-1.297.476-2.453.908c-14.219 5.106-8.319 20.472 4.685 15.586l1.155-.456q1.928-.735 3.851-1.486 1.357-.532 2.716-1.06c6.273-2.431 12.497-4.943 18.612-7.751a644 644 0 0 1 4.296-1.985c9.587-4.37 19.145-8.932 28.322-14.121l1.023-.588a27 27 0 0 0 3.216-2.106c1.742-2.423 2.299-4.344 2.028-7.282m-5.473-73.571c-1.167-2.292-2.457-3.663-4.781-4.781-2.473-.271-4.403-.252-6.591.945-10.361 5.732-20.829 11.21-31.529 16.279l-1.176.556c-3.957 1.874-7.913 3.747-11.918 5.514l-.913.403c-1.121.499-13.589 6.873-14.711 7.371l-.672.281c-2.332.973-4.473 1.865-6.052 3.969-1.31 2.392-1.621 4.227-1.075 6.956 1.006 2.104 1.966 3.692 4.06 4.758 2.766 1.025 4.694.976 7.501-.048l1.467-.646c.932-.41 13.207-6.7 14.136-7.117l1.095-.493a492 492 0 0 0 29.435-14.344 368 368 0 0 1 6.096-3.198q1.741-.883 3.479-1.768l1.75-.891q.514-.257 1.027-.51c3.642-1.802 7.191-3.558 9.372-7.17.595-2.193.584-3.876 0-6.066m68.886-.567c-.803-3.933-2.873-6.359-6.07-8.88-4.807-2.049-9.236-2.376-13.949.04l-34.177 22.201-2.038 1.109q-2.265 1.24-4.534 2.473l-2.423 1.318-.767.419c-12.444 6.777-24.892 13.557-37.514 20.018l-1.612.822c-5.839 2.981-11.704 5.901-17.637 8.7l-1.703.8c-2.68 1.26-12.987 6.063-15.681 7.295l-1.484.678-2.787 1.286c-4.271 1.945-7.33 4.167-10.301 7.749-3.744 8.133.151 14.69 8.35 17.875 4.946.772 9.697.398 14.085-1.678l1.96-.961 4.519-2.18c2.444-1.198 12.516-5.921 14.975-7.088 14.592-6.872 28.811-14.398 42.993-22.033q2.346-1.263 4.695-2.523a2033 2033 0 0 0 7.573-4.074l2.853-1.546.614-.329c5.477-2.931 43.297-27.061 47.795-31.361 2.225-3.339 2.589-6.246 2.265-10.13m-92.056-135.825a345 345 0 0 0-4.051-1.983c-5.209-2.414-9.176-3.381-13.991.265-2.092 2.46-2.973 4.795-2.82 8.019 1.095 3.644 2.917 5.947 6.177 7.843q1.446.674 2.886 1.358l1.08.514c16.487 7.727 32.158 16.893 47.333 27.018.503.34 1.006.691 1.513 1.044 3.156 2.199 6.416 4.471 10.257 4.792 3.506-.35 5.327-1.913 7.612-4.548 1.293-2.627 1.252-4.779.951-7.661-.201-1.001-.344-1.708-.64-2.34-.71-1.516-2.306-2.603-7.729-6.299l-1.216-.813c-14.622-9.821-29.851-18.581-45.616-26.352zm94.634-12.609c-3.056-2.46-6.149-4.95-9.67-6.564-4.051-.652-6.467-.114-9.513 2.844-1.851 2.884-1.88 5.708-1.585 9.098 1.632 3.512 4.228 5.482 7.188 7.622a479 479 0 0 1 3.118 2.23l1.577 1.137c8.488 6.081 16.744 12.506 24.881 19.115 2.071 1.694 20.788 15.658 22.89 17.307l1.247.939c1.292.981 2.095 1.449 3.665 1.734 3.095.145 5.463-.436 7.808-2.724 2.102-2.583 2.143-5.08 2.112-8.415-.464-3.051-1.833-4.65-4.093-6.484l-.879-.691-1.874-1.508c-1.134-.9-18.893-14.101-20.016-15.017a473 473 0 0 0-19.58-15.138l-.038-.027c-2.169-1.584-4.335-3.165-6.453-4.827q-.393-.314-.785-.631m-207.73 32.338c-2.284-4.569-7.227-7.089-11.923-4.213-1.987 1.747-3.055 3.736-3.6 6.316l-.195 1.035c-2.03 10.266-3.603 20.638-4.96 31.013l-.33 2.545c-.16 1.207-.32 2.414-.47 3.622l-.14 1.122c-.763 5.688-.375 10.646 5.362 13.067 2.692.486 4.88.11 7.172-1.435 2.392-2.391 2.88-5.252 3.244-8.532q.112-1.076.232-2.15l.133-1.18a393 393 0 0 1 3.977-27.067c.14-.767.29-1.54.442-2.316.76-3.896 1.542-7.897 1.057-11.827m29.995 134.947c-1.199-3.473-2.938-5.982-6.3-7.895-5.39-2.09-10.976-1.48-15.064 2.399-6.448 7.195-6.448 7.195-1.049 63.872.053.57.107 1.124.16 1.678q.087.992.165 1.979c.41 5.109.81 10.108 3.886 14.57 2.687 2.422 5.016 3.416 8.734 3.761 4.357.2 7.21-1.088 10.464-3.711 3.201-3.816 3.177-7.717 2.91-12.393a764 764 0 0 1-.438-4.277l-.16-1.638c-.907-9.067-1.675-18.121-2.026-27.218l-.096-2.649c-.16-4.372-.316-8.743-.433-13.116a835 835 0 0 0-.147-5.002l-.078-2.357c-.05-2.689-.112-5.335-.528-8.003m-10.68-214.683c-3.45 1.754-5.212 4.05-6.874 7.086l-.704 1.348c-6.366 12.139-11.757 24.748-16.233 37.472l-.42 1.199c-.204.571-.42 1.153-.639 1.743-1.624 4.38-3.422 9.229-1.806 13.69 3.367 6.061 10.946 7.381 17.08 4.809 4.476-2.939 4.476-2.939 7.066-11.039a366 366 0 0 1 2.278-7.052l.478-1.426c2.454-7.361 5.615-14.45 9.189-21.472q1.198-2.346 2.384-4.695a205 205 0 0 1 1.778-3.455c6.118-11.555-1.054-21.392-13.577-18.208M274.71 192.951c-.44-.259-.919-.469-1.816-.862-3.868-.465-6.334-.466-9.556 1.468-2.287 1.584-3.7 3.211-4.207 5.773-.262 3.191.785 5.457 3.141 8 3.44 3.23 6.379 6.494 8.602 10.446 2.615 5.811 3.516 12.02.772 17.887-.757 1.498-1.454 2.986-2.06 4.535-.655 3.755.358 6.311 2.912 9.397 1.73 1.429 2.976 2.204 5.365 2.498 4.106.166 6.247-.352 9.406-2.596 6.279-5.744 6.989-15.393 7.043-22.946-.382-11.427-6.919-23.158-16.411-31.171l-1.253-.991c-.977-.779-1.432-1.141-1.938-1.438m-45.691-99.062a157 157 0 0 0-6.268-3.51c-5.605-2.45-10.902-1.735-14.199 4.04-1.13 2.825-1.25 4.99-.492 8.003.513 1.298.866 2.192 1.385 2.962 1.146 1.702 3.102 2.802 9.379 6.334a456 456 0 0 1 5.029 2.823 346 346 0 0 1 8.046 4.697l1.495.901c2.645 1.581 5.289 3.162 7.897 4.81l1.787 1.134 3.547 2.207c4.253 2.773 7.666 4.401 12.758 3.521 2.359-1.047 3.643-2.432 5.124-4.604 1.354-2.901 1.223-5.737.709-8.866-1.039-3.456-1.039-3.456-7.239-6.983a168 168 0 0 1-7.264-4.346c-6.399-4.052-12.833-8.034-19.388-11.803zM187.401 77.06l-1.142-.353c-14.806-4.653-41.696-12.03-56.395-3.771-2.119 1.936-2.946 3.58-3.389 6.56.028 2.765.85 5.013 2.55 7.053 2.568 2.315 2.568 2.315 11.502 1.996 1.875-.07 3.75-.11 5.625-.151l1.373-.028a89 89 0 0 1 17.625 1.347l1.669.31c4.317.792 8.53 1.753 12.734 3.103 3.062 1.035 5.925 1.812 9.132 2.082 2.936-.97 4.73-2.08 6.278-5.028.654-2.978.723-4.435-.036-7.385-1.763-3.257-4.276-4.643-7.526-5.735m79.888 179.821c-.325-2.5-1.59-3.851-3.474-5.413-3.367-2.058-6.691-1.107-9.608 1.137-5.701 4.455-11.574 8.803-17.789 12.517l-.906.533-.876.517c-.476.281-.963.556-1.452.834-2.685 1.521-5.445 3.085-7.025 5.791-.876 2.142-.783 4.074-.15 6.276 1.168 2.291 2.458 3.662 4.782 4.781 1.478.164 2.61.289 3.727.207 3.638-.268 7.115-2.743 21.92-13.284l1.098-.789c2.691-1.928 5.253-3.961 7.68-6.216 2.022-2.225 2.113-4.003 2.073-6.891m107.116-48.009c-1.673-3.424-3.051-5.695-7.129-7.73-6.814-1.469-10.991.359-14.155 5.263-.234 2.171-.097 3.72.794 5.788a111 111 0 0 1 2.221 4.223c6.97 14.653 6.799 31.272-1.141 45.627-1.799 3.212-2.573 5.344-1.874 8.84 1.576 2.156 3.058 3.147 5.673 4.524 3.261.91 4.563 1.659 7.893.977 3.153-1.211 4.924-4.045 6.362-6.514l.887-1.618 1.019-1.784c9.444-17.757 8.918-38.253.198-56.11z" clip-rule="evenodd"/><path fill="url(#paint2_linear_4480_85)" fill-rule="evenodd" d="m170.376 145.984-.188 1.141c-.721 4.281-1.611 8.532-2.516 12.781l-.541 2.56q-.561 2.66-1.126 5.317-.719 3.377-1.429 6.755l-.832 3.931-.81 3.828c-.825 3.91-1.666 7.816-2.619 11.702-.953 3.885-2.812 5.389-6.167 6.74-3.837.686-6.503.547-10.286-.9-4.992-2.928-6.543-5.834-5.452-11.272l.259-1.375c.284-1.499.579-2.996.875-4.493l.605-3.139c1.486-7.654 3.085-15.288 4.734-22.913l.327-1.514a752 752 0 0 1 1.826-8.207c.251-1.105.491-2.212.731-3.319q.215-.938.432-1.874l.353-1.576c.868-2.183 2.438-3.898 5.296-4.904 7.512-2.418 18.106 1.458 16.528 10.731m-12.505 67.099c-1.131-2.39-2.731-4.003-5.744-5.299-3.305-1.002-6.96-1.06-9.982.239l-1.442.749-1.446.726c-2.605 1.959-2.999 4.571-3.35 7.216l-.132 1.166c-1.74 14.881-2.239 29.945-.899 44.944l.15 1.501c.289 3.228.832 5.602 3.261 8.425 3.086 1.973 5.582 2.563 9.627 2.671 3.306-.187 5.109-1.329 7.312-2.953 2.521-3.133 2.521-3.133 1.814-10.739-.941-9.515-.998-18.939-.33-28.42l.234-3.357.009-.14c.151-2.218.303-4.435.484-6.651q.133-1.626.25-3.254l.108-1.54c.164-1.773.318-3.502.076-5.284" clip-rule="evenodd"/><path fill="url(#paint3_linear_4480_85)" fill-rule="evenodd" d="m170.233 101.542-2.657-1.186c-.684-.309-1.374-.637-2.072-.968-4.194-1.991-8.64-4.101-13.347-3.192-2.806.82-4.722 3.064-6.185 5.386-.711 2.513-.812 4.419 0 6.913 1.995 3.514 1.995 3.514 15.516 9.323 8.577 3.685 17.049 7.518 25.416 11.628l1.707.842c14.327 7.048 28.454 14.421 42.35 22.221l1.178.662c2.092 1.166 40.291 23.595 42.326 24.852.649.405 1.303.828 1.956 1.252 3.656 2.37 7.436 4.821 11.912 4.959 2.599-.302 4.397-.968 6.325-2.724 2.083-2.374 2.999-4.547 2.843-7.628-1.477-4.64-4.559-6.669-8.696-9.074l-1.645-.937c-6.103-3.517-48.374-28.208-54.556-31.597q-2.63-1.437-5.251-2.885c-15.498-8.599-31.548-16.248-47.726-23.596l-1.249-.567a1293 1293 0 0 0-8.145-3.684" clip-rule="evenodd"/><path fill="#01a3ee" d="M140 134.5c0 6.904-5.596 12.5-12.5 12.5s-12.5-5.596-12.5-12.5 5.596-12.5 12.5-12.5 12.5 5.596 12.5 12.5"/><circle cx="148" cy="292" r="11" fill="#00a2ee"/><ellipse cx="132" cy="387.5" fill="#00a2ee" rx="10" ry="10.5"/><path stroke="url(#paint4_linear_4480_85)" stroke-linecap="round" stroke-width="26" d="M320.5 206s8.435 18.552 8 33c-.399 13.259-7 31.5-7 31.5"/><defs><linearGradient id="paint0_linear_4480_85" x1="425" x2="81.5" y1="233" y2="32" gradientUnits="userSpaceOnUse"><stop stop-color="#011d2d"/><stop offset="1" stop-color="#fff" stop-opacity=".15"/></linearGradient><linearGradient id="paint1_linear_4480_85" x1="61" x2="387.866" y1="231.494" y2="231.494" gradientUnits="userSpaceOnUse"><stop offset=".313" stop-color="#00a3ee"/><stop offset=".591" stop-color="#00a3ff"/><stop offset="1" stop-color="#003780"/></linearGradient><linearGradient id="paint2_linear_4480_85" x1="61" x2="387.866" y1="231.494" y2="231.494" gradientUnits="userSpaceOnUse"><stop offset=".313" stop-color="#00a3ee"/><stop offset=".591" stop-color="#00a3ff"/><stop offset="1" stop-color="#003780"/></linearGradient><linearGradient id="paint3_linear_4480_85" x1="61" x2="387.866" y1="231.494" y2="231.494" gradientUnits="userSpaceOnUse"><stop offset=".313" stop-color="#00a3ee"/><stop offset=".591" stop-color="#00a3ff"/><stop offset="1" stop-color="#003780"/></linearGradient><linearGradient id="paint4_linear_4480_85" x1="299.5" x2="333" y1="238" y2="238" gradientUnits="userSpaceOnUse"><stop stop-color="#0085db"/><stop offset=".827" stop-color="#004c98"/></linearGradient></defs></svg>